<svg t="1574232385594" class="icon" viewBox="0 0 1024 1024" version="1.1" xmlns="http://www.w3.org/2000/svg" p-id="1482" width="200" height="200"><path d="M512 256c-10.24 0-17.066667-6.826667-17.066667-17.066667V119.466667c0-10.24 6.826667-17.066667 17.066667-17.066667s17.066667 6.826667 17.066667 17.066667V238.933333c0 10.24-6.826667 17.066667-17.066667 17.066667z" fill="" p-id="1483"></path><path d="M563.2 136.533333h-102.4c-10.24 0-17.066667-6.826667-17.066667-17.066666s6.826667-17.066667 17.066667-17.066667h102.4c10.24 0 17.066667 6.826667 17.066667 17.066667s-6.826667 17.066667-17.066667 17.066666zM512 716.8c-10.24 0-17.066667-6.826667-17.066667-17.066667v-341.333333c0-10.24 6.826667-17.066667 17.066667-17.066667s17.066667 6.826667 17.066667 17.066667v341.333333c0 10.24-6.826667 17.066667-17.066667 17.066667z" fill="" p-id="1484"></path><path d="M409.6 716.8c-3.413333 0-10.24 0-13.653333-3.413333-6.826667-6.826667-6.826667-17.066667 0-23.893334l238.933333-238.933333c6.826667-6.826667 17.066667-6.826667 23.893333 0s6.826667 17.066667 0 23.893333l-238.933333 238.933334c0 3.413333-6.826667 3.413333-10.24 3.413333zM768 375.466667c-3.413333 0-10.24 0-13.653333-3.413334-6.826667-6.826667-6.826667-17.066667 0-23.893333l51.2-51.2c6.826667-6.826667 17.066667-6.826667 23.893333 0s6.826667 17.066667 0 23.893333l-51.2 51.2c0 3.413333-6.826667 3.413333-10.24 3.413334z" fill="" p-id="1485"></path><path d="M853.333333 341.333333c-3.413333 0-10.24 0-13.653333-3.413333l-51.2-51.2c-6.826667-6.826667-6.826667-17.066667 0-23.893333s17.066667-6.826667 23.893333 0l51.2 51.2c6.826667 6.826667 6.826667 17.066667 0 23.893333 0 3.413333-6.826667 3.413333-10.24 3.413333zM699.733333 324.266667c-3.413333 0-6.826667 0-6.826666-3.413334C580.266667 259.413333 443.733333 259.413333 334.506667 320.853333c-3.413333 3.413333-10.24 3.413333-13.653334 0-3.413333 0-6.826667-3.413333-10.24-10.24-13.653333-27.306667-20.48-58.026667-20.48-88.746666C290.133333 98.986667 389.12 0 512 0s221.866667 98.986667 221.866667 221.866667c0 30.72-6.826667 61.44-20.48 92.16l-10.24 10.24h-3.413334zM512 238.933333c61.44 0 122.88 13.653333 177.493333 44.373334 6.826667-20.48 10.24-40.96 10.24-61.44C699.733333 119.466667 614.4 34.133333 512 34.133333S324.266667 119.466667 324.266667 221.866667c0 20.48 3.413333 40.96 10.24 61.44C389.12 252.586667 450.56 238.933333 512 238.933333z" fill="" p-id="1486"></path><path d="M512 1024C296.96 1024 119.466667 846.506667 119.466667 631.466667S296.96 238.933333 512 238.933333s392.533333 177.493333 392.533333 392.533334S727.04 1024 512 1024z m0-750.933333C314.026667 273.066667 153.6 433.493333 153.6 631.466667S314.026667 989.866667 512 989.866667s358.4-160.426667 358.4-358.4S709.973333 273.066667 512 273.066667z" fill="" p-id="1487"></path><path d="M512 307.2c-10.24 0-17.066667-6.826667-17.066667-17.066667v-34.133333c0-10.24 6.826667-17.066667 17.066667-17.066667s17.066667 6.826667 17.066667 17.066667v34.133333c0 10.24-6.826667 17.066667-17.066667 17.066667zM512 1024c-10.24 0-17.066667-6.826667-17.066667-17.066667v-34.133333c0-10.24 6.826667-17.066667 17.066667-17.066667s17.066667 6.826667 17.066667 17.066667v34.133333c0 10.24-6.826667 17.066667-17.066667 17.066667zM887.466667 648.533333h-34.133334c-10.24 0-17.066667-6.826667-17.066666-17.066666s6.826667-17.066667 17.066666-17.066667h34.133334c10.24 0 17.066667 6.826667 17.066666 17.066667s-6.826667 17.066667-17.066666 17.066666zM170.666667 648.533333H136.533333c-10.24 0-17.066667-6.826667-17.066666-17.066666s6.826667-17.066667 17.066666-17.066667h34.133334c10.24 0 17.066667 6.826667 17.066666 17.066667s-6.826667 17.066667-17.066666 17.066666zM341.333333 351.573333c-6.826667 0-10.24-3.413333-13.653333-10.24l-17.066667-27.306666c-6.826667-6.826667-3.413333-17.066667 6.826667-23.893334 6.826667-3.413333 17.066667-3.413333 23.893333 6.826667l17.066667 30.72c3.413333 6.826667 3.413333 17.066667-6.826667 23.893333H341.333333zM699.733333 972.8c-6.826667 0-10.24-3.413333-13.653333-10.24l-17.066667-30.72c-3.413333-6.826667-3.413333-17.066667 6.826667-23.893333 6.826667-3.413333 17.066667-3.413333 23.893333 6.826666l17.066667 30.72c3.413333 6.826667 3.413333 17.066667-6.826667 23.893334-3.413333 3.413333-6.826667 3.413333-10.24 3.413333z" fill="" p-id="1488"></path><path d="M215.04 477.866667c-3.413333 0-6.826667 0-10.24-3.413334l-30.72-17.066666c-3.413333-3.413333-6.826667-13.653333-3.413333-20.48s13.653333-10.24 23.893333-6.826667l30.72 17.066667c6.826667 3.413333 10.24 13.653333 6.826667 23.893333-3.413333 3.413333-10.24 6.826667-17.066667 6.826667zM836.266667 836.266667c-3.413333 0-6.826667 0-10.24-3.413334l-30.72-17.066666c-6.826667-3.413333-10.24-13.653333-6.826667-23.893334 3.413333-6.826667 13.653333-10.24 23.893333-6.826666l30.72 17.066666c6.826667 3.413333 10.24 13.653333 6.826667 23.893334 0 6.826667-6.826667 10.24-13.653333 10.24z" fill="" p-id="1489"></path><path d="M187.733333 836.266667c-6.826667 0-10.24-3.413333-13.653333-10.24-6.826667-6.826667-3.413333-17.066667 3.413333-20.48l30.72-17.066667c6.826667-3.413333 17.066667-3.413333 23.893334 6.826667 3.413333 6.826667 3.413333 17.066667-6.826667 23.893333l-30.72 17.066667h-6.826667zM808.96 477.866667c-6.826667 0-10.24-3.413333-13.653333-10.24-3.413333-6.826667-3.413333-17.066667 6.826666-23.893334l30.72-17.066666c6.826667-3.413333 17.066667-3.413333 23.893334 6.826666 3.413333 6.826667 3.413333 17.066667-6.826667 23.893334l-30.72 17.066666c-6.826667 3.413333-10.24 3.413333-10.24 3.413334z" fill="" p-id="1490"></path><path d="M324.266667 972.8c-3.413333 0-6.826667 0-10.24-3.413333-6.826667-3.413333-10.24-13.653333-3.413334-20.48l17.066667-30.72c3.413333-6.826667 13.653333-10.24 23.893333-6.826667 6.826667 3.413333 10.24 13.653333 6.826667 23.893333l-17.066667 30.72c-6.826667 3.413333-10.24 6.826667-17.066666 6.826667zM682.666667 351.573333c-3.413333 0-6.826667 0-10.24-3.413333-6.826667-3.413333-10.24-13.653333-6.826667-23.893333l17.066667-30.72c3.413333-6.826667 13.653333-10.24 23.893333-6.826667 10.24 10.24 13.653333 20.48 6.826667 27.306667l-17.066667 30.72c-3.413333 6.826667-6.826667 6.826667-13.653333 6.826666z" fill="" p-id="1491"></path></svg>